<svg width="1461" height="1024" viewBox="0 0 1461 1024" fill="none" xmlns="http://www.w3.org/2000/svg">
<g clip-path="url(#clip0_20_71)">
<rect width="1461" height="1024" fill="#BA826B"/>
<g filter="url(#filter0_d_20_71)">
<rect width="1535.32" height="748" fill="url(#paint0_linear_20_71)"/>
</g>
<path d="M1180.51 291.897L863.873 287.897H749.335C749.335 287.897 790.06 251.897 829.257 259.397C868.455 266.897 905.616 255.397 905.616 255.397C905.616 255.397 863.873 225.397 934.633 189.897C1005.39 154.397 1003.36 268.397 1024.74 250.397C1046.12 232.397 1030.34 203.897 1088.88 213.897C1147.42 223.897 1091.42 270.897 1145.89 276.397C1200.36 281.897 1180.51 291.897 1180.51 291.897Z" fill="#ECFBFC"/>
<path d="M77.377 790H0.973187H-5.09061V727.841L0.973187 716.082C0.973187 716.082 -0.239572 670.722 10.6753 669.042C21.5901 667.363 34.9304 716.082 34.9304 716.082C34.9304 716.082 47.058 690.882 57.9729 695.922C68.8877 700.962 77.377 727.841 77.377 727.841V790Z" fill="url(#paint1_linear_20_71)"/>
<path d="M5.28413 718.931C2.31992 714.144 -5.09061 725.315 -5.09061 725.315V845H91.2462V747.656C91.2462 747.656 100.139 726.91 83.8357 715.74C67.5325 704.569 74.9431 750.847 74.9431 750.847C74.9431 750.847 69.0146 742.868 57.1578 747.656C45.301 752.443 57.1578 763.614 57.1578 763.614L40.8546 773.189C40.8546 773.189 51.2294 747.656 30.4799 747.656C9.73044 747.656 21.5873 758.826 21.5873 758.826H5.28413C5.28413 758.826 12.6947 754.039 11.2125 738.081C9.73044 722.123 8.24834 723.719 5.28413 718.931Z" fill="url(#paint2_linear_20_71)"/>
<g filter="url(#filter1_f_20_71)">
<path d="M1419.98 335L1459.14 235L1461 738H1401.95V698.5V439.5H1445.46V335H1419.98Z" fill="#33C0E9"/>
</g>
<path d="M1446.75 250.609C1446.75 250.609 1231.42 254.109 1232.95 246.609C1234.48 239.109 1273.17 235.109 1273.17 235.109C1273.17 235.109 1278.76 193.609 1329.67 196.109C1380.58 198.609 1359.2 238.609 1376 235.109C1392.79 231.609 1386.69 221.109 1418.25 226.109C1449.81 231.109 1446.75 250.609 1446.75 250.609Z" fill="#ECFBFC"/>
<g filter="url(#filter2_f_20_71)">
<path d="M896.456 635.024H809.404V749H958.049V613H903.026L880.031 628.968H896.456V635.024Z" fill="#95DDE2"/>
</g>
<g filter="url(#filter3_f_20_71)">
<path d="M1054.26 391.5L1076.15 352.5H1213.09L1209.52 500.5L1193.74 507.5L1180 487.5H1072.59L1076.15 391.5H1054.26Z" fill="#73CDDF"/>
</g>
<g filter="url(#filter4_d_20_71)">
<path d="M-5.09061 898H771.008L838.93 734H720.461V841.517H-5.09061V898Z" fill="#FCDED1"/>
</g>
<g filter="url(#filter5_d_20_71)">
<path d="M911.216 731.082V882.381H1104.2V914.918H1485.43V731.082H911.216Z" fill="#FCDED1"/>
</g>
<path d="M1508.85 792H1434.33H1428.42V739.602L1434.33 729.689C1434.33 729.689 1433.15 691.452 1443.8 690.036C1454.44 688.62 1467.45 729.689 1467.45 729.689C1467.45 729.689 1479.28 708.446 1489.93 712.695C1500.57 716.943 1508.85 739.602 1508.85 739.602V792Z" fill="url(#paint3_linear_20_71)"/>
<path d="M1420.85 746.049C1418.65 743.089 1413.15 749.996 1413.15 749.996V824H1484.66V763.81C1484.66 763.81 1491.26 750.983 1479.16 744.076C1467.05 737.169 1472.55 765.784 1472.55 765.784C1472.55 765.784 1468.15 760.85 1459.35 763.81C1450.55 766.77 1459.35 773.677 1459.35 773.677L1447.25 779.598C1447.25 779.598 1454.95 763.81 1439.55 763.81C1424.15 763.81 1432.95 770.717 1432.95 770.717H1420.85C1420.85 770.717 1426.35 767.757 1425.25 757.89C1424.15 748.023 1423.05 749.009 1420.85 746.049Z" fill="url(#paint4_linear_20_71)"/>
<g filter="url(#filter6_f_20_71)">
<path d="M385.867 74L535.759 160.25H235.975L385.867 74Z" fill="#30BFEA"/>
</g>
<path d="M809.404 106H468.334C468.334 106 485.595 103.525 490.428 90.534C495.261 77.5426 499.404 77.5426 511.831 80.6358C524.259 83.729 517.355 91.7713 531.163 86.2035C544.972 80.6358 560.161 47.2293 582.945 44.1361C605.729 41.0429 603.658 91.7713 631.965 86.2035C660.272 80.6358 676.152 54.6529 706.531 63.9325C736.91 73.2121 717.578 99.195 743.814 86.2035C770.05 73.2121 776.954 82.4917 790.763 86.2035C804.571 89.9154 809.404 106 809.404 106Z" fill="#ECFBFC"/>
<path d="M992.665 430H809.404C809.404 430 824.74 407.839 837.008 409.854C849.277 411.869 848.51 425.299 866.913 422.613C885.316 419.927 869.98 395.752 882.249 390.379C894.517 385.007 896.051 438.73 907.552 422.613C919.054 406.496 943.591 403.81 945.125 409.854C946.658 415.898 950.492 435.372 953.56 422.613C956.627 409.854 974.263 426.642 981.931 422.613C989.598 418.584 992.665 430 992.665 430Z" fill="white"/>
<rect x="975.357" y="748" width="20.3624" height="37" fill="#E06A2D"/>
<rect x="978.412" y="753" width="14.2537" height="28" fill="url(#paint5_linear_20_71)"/>
<g filter="url(#filter7_f_20_71)">
<path d="M793.341 494.244V552L712.683 489.972V449H793.341L824.676 494.244H793.341Z" fill="#95DDE2"/>
</g>
<path d="M824.167 946C801.259 940.5 810.931 819.5 810.931 819.5C810.931 819.5 790.06 907 784.46 923.5C778.861 940 490.733 953.5 490.733 953.5C490.733 953.5 847.074 951.5 824.167 946Z" fill="#A46953"/>
<path d="M881.691 886V777C881.691 777 884.745 821.5 889.326 828C893.908 834.5 881.691 886 881.691 886Z" fill="#A46953"/>
<path d="M1057.32 933C974.92 931.331 939.292 930.239 895.435 928C884.861 925.209 880.323 923.446 895.435 917C916.372 926.37 973.559 923.8 973.321 920.5C973.083 917.2 1057.32 933 1057.32 933Z" fill="#A46953"/>
<path d="M824.167 946C801.259 940.5 810.931 819.5 810.931 819.5C810.931 819.5 790.06 907 784.46 923.5C778.861 940 490.733 953.5 490.733 953.5C490.733 953.5 847.074 951.5 824.167 946Z" stroke="#A46953"/>
<path d="M881.691 886V777C881.691 777 884.745 821.5 889.326 828C893.908 834.5 881.691 886 881.691 886Z" stroke="#A46953"/>
<path d="M1057.32 933C974.92 931.331 939.292 930.239 895.435 928C884.861 925.209 880.323 923.446 895.435 917C916.372 926.37 973.559 923.8 973.321 920.5C973.083 917.2 1057.32 933 1057.32 933Z" stroke="#A46953"/>
<path d="M1006.41 991C994.193 999.5 937.687 1011.5 937.687 1011.5L1455.91 983.5C1455.91 983.5 1018.63 982.5 1006.41 991Z" fill="#A46953" stroke="#A46953"/>
<path d="M538.076 993.001C564.038 969.501 102.83 993.001 102.83 993.001H18.3261V1026.5H617.489C617.489 1026.5 512.114 1016.5 538.076 993.001Z" fill="#A46953" stroke="#A46953"/>
<path d="M1244.14 951.5C1285.37 949.5 1339.84 942.5 1380.06 951.5C1420.28 960.5 1344.43 937 1314.9 939.5C1285.37 942 1198.83 939.5 1198.83 939.5C1198.83 939.5 1202.91 953.5 1244.14 951.5Z" fill="#A46953" stroke="#A46953"/>
<g filter="url(#filter8_d_20_71)">
<rect x="707.592" y="568" width="110.975" height="166" fill="#F9E0B5"/>
<rect x="710.592" y="571" width="104.975" height="160" stroke="#E37806" stroke-width="6"/>
</g>
<path d="M710.647 487V568H814.495L710.647 487Z" fill="#F9E0B5" stroke="#E37806" stroke-width="6"/>
<rect width="6.01197" height="186.237" transform="matrix(0.840236 -0.542221 0.555994 0.831187 708.61 574.844)" fill="#E37806"/>
<rect x="914.734" y="634.127" width="127.355" height="99.3733" fill="#FFD3C6" stroke="#E57613" stroke-width="5"/>
<rect x="914.734" y="578.393" width="118.192" height="51.7467" fill="#FFD3C6" stroke="#E57613" stroke-width="5"/>
<path d="M919.147 574.18C944.158 553.146 958.05 538.001 976.894 510.642C994.509 539.888 1008.94 554.558 1034.43 574.18H919.147Z" fill="#FFD3C6" stroke="#E57613" stroke-width="5"/>
<path d="M976.376 506V515.902C995.499 545.592 1009.12 562.905 1040.5 584C1040.5 584 1041.54 576.521 1041.54 576C1041.54 575.479 998.948 545.341 976.376 506Z" fill="#FEC441"/>
<path d="M943.832 676.5C943.832 681.713 939.519 686 934.124 686C928.728 686 924.415 681.713 924.415 676.5C924.415 671.287 928.728 667 934.124 667C939.519 667 943.832 671.287 943.832 676.5Z" fill="#822C0C" stroke="#D9731B" stroke-width="4"/>
<line x1="934.096" y1="666" x2="934.096" y2="686" stroke="#D9731B" stroke-width="3"/>
<line x1="925.47" y1="676.5" x2="943.796" y2="676.5" stroke="#D9731B" stroke-width="3"/>
<path d="M977.394 736H903.071C903.071 736 904.111 724.512 906.709 723.513C909.308 722.514 912.426 720.017 915.025 722.015C917.624 724.013 916.065 718.519 925.42 718.519C934.775 718.519 928.019 712.525 934.775 712.026C941.532 711.526 946.209 718.519 949.848 718.519C953.486 718.519 952.966 717.52 962.321 716.021C971.677 714.523 977.394 718.519 977.394 718.519V736Z" fill="url(#paint6_linear_20_71)"/>
<path d="M976.376 506H1034.41L1097.53 576H1041.54C1023.27 563.276 987.243 532.788 976.376 506Z" fill="#FDB93B"/>
<path d="M976.376 506.169V515.669C957.399 544.153 943.885 560.762 912.743 581C912.743 581 910.707 574.5 910.707 574C910.707 573.5 953.977 543.911 976.376 506.169Z" fill="#FEC441"/>
<path d="M1041.54 576H1097.53L1095.5 584H1040.52L1041.54 576Z" fill="#FEC441"/>
<path d="M1033.05 486C1055.7 533.284 1070.03 558.429 1098.34 601L1208.37 585.5L1158.8 486H1033.05Z" fill="#F8E0B1"/>
<path d="M1033.05 486C1017.41 531.819 1005.35 557.083 975.015 601H1098.34C1070.03 558.429 1055.7 533.284 1033.05 486Z" fill="#F8E0B1"/>
<path d="M1033.05 486C1017.41 531.819 1005.35 557.083 975.015 601H1098.34M1033.05 486C1055.7 533.284 1070.03 558.429 1098.34 601M1033.05 486H1158.8L1208.37 585.5L1098.34 601" stroke="#E37806" stroke-width="6"/>
<path d="M976.029 602.458V782H1096.85V602.458H976.029Z" fill="#F8E0B1"/>
<path d="M1096.85 602.458V782L1202.28 749.084V586L1096.85 602.458Z" fill="#F8E0B1"/>
<path d="M1096.85 602.458H976.029V782H1096.85M1096.85 602.458V782M1096.85 602.458L1202.28 586V749.084L1096.85 782" stroke="#E37806" stroke-width="6"/>
<line x1="1037.52" y1="601" x2="1037.52" y2="491" stroke="#E37806" stroke-width="6"/>
<path d="M1015.06 602.5C1015.31 582.269 1014.4 565.966 1001.83 564.5" stroke="#E37806" stroke-width="8"/>
<path d="M1062.92 602C1065.42 580.152 1062.6 568.981 1079.21 566.5" stroke="#E37806" stroke-width="8"/>
<line y1="-4" x2="51.4204" y2="-4" transform="matrix(0.732596 0.680664 -0.693687 0.720276 1060.88 603)" stroke="#E37806" stroke-width="8"/>
<line y1="-4" x2="43.617" y2="-4" transform="matrix(0.746952 -0.664878 0.678119 0.734953 982.484 634)" stroke="#E37806" stroke-width="8"/>
<line y1="-4" x2="47.5044" y2="-4" transform="matrix(0.600099 -0.799926 0.810099 0.586293 1102.62 638)" stroke="#E37806" stroke-width="8"/>
<path d="M1101.1 755L1154.55 745.5V768.5L1101.1 785V755Z" fill="#E09799"/>
<path d="M1011.44 675.887C1011.68 650.59 1025.64 637.344 1037.93 636.442C1044.06 635.992 1050.29 638.476 1055.1 644.62C1059.97 650.834 1063.5 660.981 1063.49 675.851C1063.44 723.96 1063.47 751.341 1063.48 760.998C1063.48 761.275 1063.26 761.5 1062.98 761.5H1011.88C1011.59 761.5 1011.39 761.28 1011.39 761.033C1011.28 750.326 1011.03 718.51 1011.44 675.887Z" fill="#B6341A" stroke="#E2720A" stroke-width="7"/>
<path d="M1035.43 483H1165.24L1220.72 581L1102.11 600C1071.73 557.21 1057.3 531.481 1035.43 483Z" fill="#D04F20"/>
<path d="M1035.94 498L1034.92 483C1059.81 528.611 1068.83 551.118 1103.29 600L1101.6 609.5C1071.19 564.135 1059.71 549.256 1035.94 498Z" fill="#FD9159"/>
<path d="M1103.13 599.5L1220.72 581L1219.2 589L1101.6 609.5L1103.13 599.5Z" fill="#A72316"/>
<rect x="971.285" y="755" width="130.319" height="30" fill="#E09799"/>
<path d="M1007.94 754.5H1060.37L1007.94 803.5L963.14 801.5L1007.94 754.5Z" fill="#E67607"/>
<path d="M1060.88 754V785L1007.94 803.5L1060.88 754Z" fill="#BC4900"/>
<path d="M1034.92 482.5L1035.94 497.5C1020.92 541.419 1005.11 569.243 976.884 608.5C976.884 608.5 968.662 602.628 972.303 602.5C975.944 602.372 1020.85 532.54 1034.92 482.5Z" fill="#FD9159"/>
<rect x="1159.55" y="611.644" width="267.946" height="240.356" fill="#FECCBC" stroke="#E37806" stroke-width="10"/>
<rect x="1162.69" y="782.467" width="261.656" height="67.8444" fill="#C94722"/>
<rect x="1179.91" y="481.689" width="227.222" height="119.956" fill="#FECCBC" stroke="#E37806" stroke-width="10"/>
<path d="M1179.37 471.472L1165.24 347H1422.29L1407.68 471.472H1179.37Z" fill="#FECCBC" stroke="#E37806" stroke-width="10"/>
<g filter="url(#filter9_d_20_71)">
<rect x="1142.33" y="599.956" width="301.363" height="15.2889" fill="#E37806"/>
</g>
<g filter="url(#filter10_d_20_71)">
<path d="M1288.94 676.4L1288.94 753.8H1321.52C1320.52 695.589 1313.09 679.32 1288.94 676.4Z" fill="#E37806"/>
</g>
<g filter="url(#filter11_d_20_71)">
<path d="M1321.52 684.567C1343.78 669.165 1356.27 668.008 1378.53 684.567V756.667H1321.52V684.567Z" fill="#8D320B"/>
<path d="M1324.52 753.667V686.149C1334.9 679.114 1342.63 675.705 1350.07 675.581C1357.48 675.458 1365.19 678.584 1375.53 686.086V753.667H1324.52Z" stroke="#E37806" stroke-width="6"/>
</g>
<g filter="url(#filter12_d_20_71)">
<path d="M1409.08 678.311L1409.08 753.8H1378.53C1379.47 697.027 1386.43 681.159 1409.08 678.311Z" fill="#E37806"/>
</g>
<g filter="url(#filter13_d_20_71)">
<rect x="1165.75" y="467" width="257.584" height="17" fill="#E37806"/>
</g>
<g filter="url(#filter14_d_20_71)">
<rect x="1162.69" y="782" width="269.801" height="14" fill="#D05919"/>
</g>
<rect x="1261.45" y="603.778" width="13.2355" height="249.4" fill="#E37806"/>
<path d="M1176.87 852V684.525C1191.27 673.122 1201.92 668.02 1212.08 668C1222.23 667.98 1232.87 673.034 1247.27 684.516V852H1176.87Z" fill="#8D320B" stroke="#E37806" stroke-width="8"/>
<rect x="1224.22" y="505.5" width="136.555" height="69" fill="#8D320B" stroke="#E37806" stroke-width="7"/>
<rect x="1288.94" y="508" width="7.12683" height="64" fill="#E37806"/>
<path d="M1297.08 263L1407.55 343H1185.09L1297.08 263Z" fill="#FECCBC"/>
<g filter="url(#filter15_d_20_71)">
<path d="M1438.6 354C1379.15 325.204 1348.09 304.324 1297.08 258C1253.78 295.882 1224.61 316.611 1177.96 342.081C1170.93 345.921 1163.5 349.869 1155.56 354" stroke="#FDC33F" stroke-width="20"/>
</g>
<rect x="1261.89" y="373.5" width="63.2502" height="72" fill="#8D320B" stroke="#E37806" stroke-width="7"/>
<path d="M1295.98 371.4C1304.62 387.478 1311.4 395.301 1326.53 407.4" stroke="#E37806" stroke-width="5"/>
<path d="M1260.52 408.394C1276.13 395.972 1283.07 387.893 1292.08 371.394" stroke="#E37806" stroke-width="5"/>
<path d="M1326.48 410.654C1312.05 421.919 1305.4 429.399 1295.94 444.654" stroke="#E37806" stroke-width="5"/>
<path d="M1294.16 445.654C1285.1 429.789 1278.36 422.397 1263.61 411.654" stroke="#E37806" stroke-width="5"/>
<path d="M737.118 389L673.097 164H132.76L66.1777 389H737.118Z" fill="#F4AD38"/>
<rect x="71.1777" y="623.313" width="413.02" height="219.3" fill="#DF9695" stroke="#E37806" stroke-width="10"/>
<path d="M100.794 722.502C87.0492 709.002 112.502 695.002 112.502 695.002C112.502 695.002 113.743 694.997 114.538 695.002C134.278 695.123 143.046 702.502 164.426 703.002C185.807 703.502 178.68 727.502 175.116 736.002C171.553 744.502 157.808 744.502 143.046 758.502C128.283 772.502 114.538 736.002 100.794 722.502Z" fill="#DB7F7C"/>
<rect x="71.6777" y="394.513" width="412.02" height="218.3" fill="#F9E0B5" stroke="#E37806" stroke-width="11"/>
<rect x="489.197" y="618.313" width="247.462" height="229.3" fill="#F9E0B5"/>
<rect x="489.197" y="389.013" width="247.462" height="229.3" fill="#F9E0B5"/>
<path d="M611.384 252L737.098 391.034L483.587 390.966L611.384 252Z" fill="#FBE9C5"/>
<rect x="484.624" y="389" width="13.2355" height="459" fill="#E37806"/>
<rect x="717.983" y="389.013" width="18.6764" height="458.6" fill="#E37806"/>
<rect x="488.697" y="616" width="229.077" height="13" fill="#E37806"/>
<rect x="488.697" y="834" width="229.077" height="14" fill="#E37806"/>
<rect x="488.697" y="389" width="229.077" height="15" fill="#E37806"/>
<rect x="604.057" y="252.35" width="16.8087" height="136.663" fill="#E37806"/>
<path d="M618.064 368.614L674.571 322.058L688.101 338.234L618.064 392.682V368.614Z" fill="#E37806"/>
<path d="M604.057 371.366L546.044 324.809L532.153 340.986L604.057 395.434V371.366Z" fill="#E37806"/>
<rect x="542.657" y="399" width="17.308" height="435" fill="#E37806"/>
<path d="M175.116 521.737L186.65 510.409L286.143 608.131L274.609 619.459L175.116 521.737Z" fill="#E37806"/>
<path d="M220.041 675.97C229.204 661.97 227.168 659.97 241.421 652.97C266.11 647.485 277.131 649.107 290.8 661.97C304.47 674.833 334.07 670.47 326.943 688.97C319.817 707.47 316.762 706.47 308.108 706.97C299.454 707.47 301.999 717.47 279.092 723.47C256.184 729.47 233.785 703.97 233.785 703.97C233.785 703.97 210.878 689.97 220.041 675.97Z" fill="#DB7F7C"/>
<path d="M373.185 688.311C361.985 670.811 354.858 661.311 368.603 650.311C382.348 639.311 375.221 633.811 392.529 636.811C409.837 639.811 455.652 652.311 460.234 661.811C464.815 671.311 468.888 722.311 439.871 706.311C410.855 690.311 384.384 705.811 373.185 688.311Z" fill="#DB7F7C"/>
<path d="M358.422 771.811C343.659 764.811 353.331 751.811 354.858 744.311C356.385 736.811 341.623 735.311 351.804 722.311C361.985 709.311 398.637 712.311 409.837 722.311C421.036 732.311 415.436 736.311 415.436 746.811C415.436 757.311 446.489 753.811 447.507 767.311C448.525 780.811 432.744 796.311 423.581 806.311C414.418 816.311 397.619 796.811 392.529 788.311C387.438 779.811 373.185 778.811 358.422 771.811Z" fill="#DB7F7C"/>
<path d="M611.38 255V227L751.371 382V405L611.38 255Z" fill="#FDC33F"/>
<path d="M611.889 254.629V226L469.353 384.483V408L611.889 254.629Z" fill="#FDC33F"/>
<path d="M559.873 832.229L558.404 680.601C579.515 663.263 595.592 654.745 611.739 654.446C627.917 654.146 645.298 662.082 669.027 680.696L670.495 832.229H559.873Z" fill="#8D320B" stroke="#E37806" stroke-width="9"/>
<rect x="659.741" y="399" width="17.308" height="435" fill="#E37806"/>
<rect x="75.3408" y="514" width="408.266" height="10" fill="#E37806"/>
<rect x="562.465" y="493.5" width="94.7756" height="56" fill="#8D320B" stroke="#E37806" stroke-width="5"/>
<rect width="13.6107" height="137.569" transform="matrix(-0.713426 -0.70073 0.713426 -0.70073 324.309 617.936)" fill="#E37806"/>
<rect width="14.8778" height="147.198" transform="matrix(0.848634 -0.528981 -0.542698 -0.839928 412.499 523.477)" fill="#E37806"/>
<rect width="17.3532" height="144.202" transform="matrix(0.86987 0.493282 0.506748 -0.862094 179.189 514.316)" fill="#E37806"/>
<rect x="252.421" y="452" width="98.9024" height="107" fill="#8D320B" stroke="#E37806" stroke-width="8"/>
<g filter="url(#filter16_d_20_71)">
<rect x="556.911" y="557" width="105.884" height="11" fill="#E37806"/>
</g>
<path d="M557.929 557C557.929 557 563.995 539.18 572.589 539.18C581.184 539.18 587.25 548.775 594.328 546.719C601.405 544.663 600.899 537.809 618.088 539.18C635.276 540.551 632.243 550.831 639.826 548.775C647.409 546.719 652.97 543.292 658.025 542.607C663.08 541.921 661.564 557 661.564 557H557.929Z" fill="#9E9627"/>
<g filter="url(#filter17_d_20_71)">
<rect x="549.784" y="679" width="123.192" height="12" fill="#E37806"/>
</g>
<path d="M258.721 781.5C246.504 805.5 252.103 820.5 215.451 817.5C178.799 814.5 180.835 801.382 180.835 781.5C180.835 761.618 164.065 749 187.962 749C211.859 749 270.939 757.5 258.721 781.5Z" fill="#DB7F7C"/>
<path d="M138.973 666.611C117.084 685.611 128.283 661.111 116.575 670.611C104.866 680.111 79.4133 676 79.4133 666.611C79.4133 657.222 98.7575 622.111 113.011 633.111C127.265 644.111 160.863 647.611 138.973 666.611Z" fill="#DB7F7C"/>
<path d="M289.655 778.5C285.135 760.792 288.878 755.762 305.436 754.5C312.874 756.915 315.702 759.355 313.581 769.5C321.08 772.5 324.346 775.724 326.816 787C336.712 799.509 332.166 804.363 305.436 809C281.647 805.763 280.591 797.905 289.655 778.5Z" fill="#DB7F7C" stroke="#DB7F7C"/>
</g>
<defs>
<filter id="filter0_d_20_71" x="-4" y="0" width="1543.32" height="756" filterUnits="userSpaceOnUse" color-interpolation-filters="sRGB">
<feFlood flood-opacity="0" result="BackgroundImageFix"/>
<feColorMatrix in="SourceAlpha" type="matrix" values="0 0 0 0 0 0 0 0 0 0 0 0 0 0 0 0 0 0 127 0" result="hardAlpha"/>
<feOffset dy="4"/>
<feGaussianBlur stdDeviation="2"/>
<feComposite in2="hardAlpha" operator="out"/>
<feColorMatrix type="matrix" values="0 0 0 0 0 0 0 0 0 0 0 0 0 0 0 0 0 0 0.25 0"/>
<feBlend mode="normal" in2="BackgroundImageFix" result="effect1_dropShadow_20_71"/>
<feBlend mode="normal" in="SourceGraphic" in2="effect1_dropShadow_20_71" result="shape"/>
</filter>
<filter id="filter1_f_20_71" x="1397.95" y="231" width="67.0509" height="511" filterUnits="userSpaceOnUse" color-interpolation-filters="sRGB">
<feFlood flood-opacity="0" result="BackgroundImageFix"/>
<feBlend mode="normal" in="SourceGraphic" in2="BackgroundImageFix" result="shape"/>
<feGaussianBlur stdDeviation="2" result="effect1_foregroundBlur_20_71"/>
</filter>
<filter id="filter2_f_20_71" x="805.404" y="609" width="156.645" height="144" filterUnits="userSpaceOnUse" color-interpolation-filters="sRGB">
<feFlood flood-opacity="0" result="BackgroundImageFix"/>
<feBlend mode="normal" in="SourceGraphic" in2="BackgroundImageFix" result="shape"/>
<feGaussianBlur stdDeviation="2" result="effect1_foregroundBlur_20_71"/>
</filter>
<filter id="filter3_f_20_71" x="1050.26" y="348.5" width="166.827" height="163" filterUnits="userSpaceOnUse" color-interpolation-filters="sRGB">
<feFlood flood-opacity="0" result="BackgroundImageFix"/>
<feBlend mode="normal" in="SourceGraphic" in2="BackgroundImageFix" result="shape"/>
<feGaussianBlur stdDeviation="2" result="effect1_foregroundBlur_20_71"/>
</filter>
<filter id="filter4_d_20_71" x="-9.09061" y="734" width="852.02" height="172" filterUnits="userSpaceOnUse" color-interpolation-filters="sRGB">
<feFlood flood-opacity="0" result="BackgroundImageFix"/>
<feColorMatrix in="SourceAlpha" type="matrix" values="0 0 0 0 0 0 0 0 0 0 0 0 0 0 0 0 0 0 127 0" result="hardAlpha"/>
<feOffset dy="4"/>
<feGaussianBlur stdDeviation="2"/>
<feComposite in2="hardAlpha" operator="out"/>
<feColorMatrix type="matrix" values="0 0 0 0 0 0 0 0 0 0 0 0 0 0 0 0 0 0 0.3 0"/>
<feBlend mode="normal" in2="BackgroundImageFix" result="effect1_dropShadow_20_71"/>
<feBlend mode="normal" in="SourceGraphic" in2="effect1_dropShadow_20_71" result="shape"/>
</filter>
<filter id="filter5_d_20_71" x="907.216" y="731.082" width="582.219" height="191.837" filterUnits="userSpaceOnUse" color-interpolation-filters="sRGB">
<feFlood flood-opacity="0" result="BackgroundImageFix"/>
<feColorMatrix in="SourceAlpha" type="matrix" values="0 0 0 0 0 0 0 0 0 0 0 0 0 0 0 0 0 0 127 0" result="hardAlpha"/>
<feOffset dy="4"/>
<feGaussianBlur stdDeviation="2"/>
<feComposite in2="hardAlpha" operator="out"/>
<feColorMatrix type="matrix" values="0 0 0 0 0 0 0 0 0 0 0 0 0 0 0 0 0 0 0.25 0"/>
<feBlend mode="normal" in2="BackgroundImageFix" result="effect1_dropShadow_20_71"/>
<feBlend mode="normal" in="SourceGraphic" in2="effect1_dropShadow_20_71" result="shape"/>
</filter>
<filter id="filter6_f_20_71" x="231.975" y="70" width="307.784" height="94.25" filterUnits="userSpaceOnUse" color-interpolation-filters="sRGB">
<feFlood flood-opacity="0" result="BackgroundImageFix"/>
<feBlend mode="normal" in="SourceGraphic" in2="BackgroundImageFix" result="shape"/>
<feGaussianBlur stdDeviation="2" result="effect1_foregroundBlur_20_71"/>
</filter>
<filter id="filter7_f_20_71" x="708.683" y="445" width="119.993" height="111" filterUnits="userSpaceOnUse" color-interpolation-filters="sRGB">
<feFlood flood-opacity="0" result="BackgroundImageFix"/>
<feBlend mode="normal" in="SourceGraphic" in2="BackgroundImageFix" result="shape"/>
<feGaussianBlur stdDeviation="2" result="effect1_foregroundBlur_20_71"/>
</filter>
<filter id="filter8_d_20_71" x="703.592" y="568" width="118.975" height="174" filterUnits="userSpaceOnUse" color-interpolation-filters="sRGB">
<feFlood flood-opacity="0" result="BackgroundImageFix"/>
<feColorMatrix in="SourceAlpha" type="matrix" values="0 0 0 0 0 0 0 0 0 0 0 0 0 0 0 0 0 0 127 0" result="hardAlpha"/>
<feOffset dy="4"/>
<feGaussianBlur stdDeviation="2"/>
<feComposite in2="hardAlpha" operator="out"/>
<feColorMatrix type="matrix" values="0 0 0 0 0 0 0 0 0 0 0 0 0 0 0 0 0 0 0.25 0"/>
<feBlend mode="normal" in2="BackgroundImageFix" result="effect1_dropShadow_20_71"/>
<feBlend mode="normal" in="SourceGraphic" in2="effect1_dropShadow_20_71" result="shape"/>
</filter>
<filter id="filter9_d_20_71" x="1138.33" y="599.956" width="309.363" height="23.2889" filterUnits="userSpaceOnUse" color-interpolation-filters="sRGB">
<feFlood flood-opacity="0" result="BackgroundImageFix"/>
<feColorMatrix in="SourceAlpha" type="matrix" values="0 0 0 0 0 0 0 0 0 0 0 0 0 0 0 0 0 0 127 0" result="hardAlpha"/>
<feOffset dy="4"/>
<feGaussianBlur stdDeviation="2"/>
<feComposite in2="hardAlpha" operator="out"/>
<feColorMatrix type="matrix" values="0 0 0 0 0 0 0 0 0 0 0 0 0 0 0 0 0 0 0.25 0"/>
<feBlend mode="normal" in2="BackgroundImageFix" result="effect1_dropShadow_20_71"/>
<feBlend mode="normal" in="SourceGraphic" in2="effect1_dropShadow_20_71" result="shape"/>
</filter>
<filter id="filter10_d_20_71" x="1284.94" y="676.4" width="40.5798" height="85.4" filterUnits="userSpaceOnUse" color-interpolation-filters="sRGB">
<feFlood flood-opacity="0" result="BackgroundImageFix"/>
<feColorMatrix in="SourceAlpha" type="matrix" values="0 0 0 0 0 0 0 0 0 0 0 0 0 0 0 0 0 0 127 0" result="hardAlpha"/>
<feOffset dy="4"/>
<feGaussianBlur stdDeviation="2"/>
<feComposite in2="hardAlpha" operator="out"/>
<feColorMatrix type="matrix" values="0 0 0 0 0 0 0 0 0 0 0 0 0 0 0 0 0 0 0.25 0"/>
<feBlend mode="normal" in2="BackgroundImageFix" result="effect1_dropShadow_20_71"/>
<feBlend mode="normal" in="SourceGraphic" in2="effect1_dropShadow_20_71" result="shape"/>
</filter>
<filter id="filter11_d_20_71" x="1317.52" y="672.578" width="65.0146" height="92.0889" filterUnits="userSpaceOnUse" color-interpolation-filters="sRGB">
<feFlood flood-opacity="0" result="BackgroundImageFix"/>
<feColorMatrix in="SourceAlpha" type="matrix" values="0 0 0 0 0 0 0 0 0 0 0 0 0 0 0 0 0 0 127 0" result="hardAlpha"/>
<feOffset dy="4"/>
<feGaussianBlur stdDeviation="2"/>
<feComposite in2="hardAlpha" operator="out"/>
<feColorMatrix type="matrix" values="0 0 0 0 0 0 0 0 0 0 0 0 0 0 0 0 0 0 0.25 0"/>
<feBlend mode="normal" in2="BackgroundImageFix" result="effect1_dropShadow_20_71"/>
<feBlend mode="normal" in="SourceGraphic" in2="effect1_dropShadow_20_71" result="shape"/>
</filter>
<filter id="filter12_d_20_71" x="1374.53" y="678.311" width="38.5436" height="83.4889" filterUnits="userSpaceOnUse" color-interpolation-filters="sRGB">
<feFlood flood-opacity="0" result="BackgroundImageFix"/>
<feColorMatrix in="SourceAlpha" type="matrix" values="0 0 0 0 0 0 0 0 0 0 0 0 0 0 0 0 0 0 127 0" result="hardAlpha"/>
<feOffset dy="4"/>
<feGaussianBlur stdDeviation="2"/>
<feComposite in2="hardAlpha" operator="out"/>
<feColorMatrix type="matrix" values="0 0 0 0 0 0 0 0 0 0 0 0 0 0 0 0 0 0 0.25 0"/>
<feBlend mode="normal" in2="BackgroundImageFix" result="effect1_dropShadow_20_71"/>
<feBlend mode="normal" in="SourceGraphic" in2="effect1_dropShadow_20_71" result="shape"/>
</filter>
<filter id="filter13_d_20_71" x="1161.75" y="467" width="265.584" height="25" filterUnits="userSpaceOnUse" color-interpolation-filters="sRGB">
<feFlood flood-opacity="0" result="BackgroundImageFix"/>
<feColorMatrix in="SourceAlpha" type="matrix" values="0 0 0 0 0 0 0 0 0 0 0 0 0 0 0 0 0 0 127 0" result="hardAlpha"/>
<feOffset dy="4"/>
<feGaussianBlur stdDeviation="2"/>
<feComposite in2="hardAlpha" operator="out"/>
<feColorMatrix type="matrix" values="0 0 0 0 0 0 0 0 0 0 0 0 0 0 0 0 0 0 0.25 0"/>
<feBlend mode="normal" in2="BackgroundImageFix" result="effect1_dropShadow_20_71"/>
<feBlend mode="normal" in="SourceGraphic" in2="effect1_dropShadow_20_71" result="shape"/>
</filter>
<filter id="filter14_d_20_71" x="1158.69" y="782" width="277.801" height="22" filterUnits="userSpaceOnUse" color-interpolation-filters="sRGB">
<feFlood flood-opacity="0" result="BackgroundImageFix"/>
<feColorMatrix in="SourceAlpha" type="matrix" values="0 0 0 0 0 0 0 0 0 0 0 0 0 0 0 0 0 0 127 0" result="hardAlpha"/>
<feOffset dy="4"/>
<feGaussianBlur stdDeviation="2"/>
<feComposite in2="hardAlpha" operator="out"/>
<feColorMatrix type="matrix" values="0 0 0 0 0 0 0 0 0 0 0 0 0 0 0 0 0 0 0.4 0"/>
<feBlend mode="normal" in2="BackgroundImageFix" result="effect1_dropShadow_20_71"/>
<feBlend mode="normal" in="SourceGraphic" in2="effect1_dropShadow_20_71" result="shape"/>
</filter>
<filter id="filter15_d_20_71" x="1125.95" y="223.605" width="342.013" height="168.395" filterUnits="userSpaceOnUse" color-interpolation-filters="sRGB">
<feFlood flood-opacity="0" result="BackgroundImageFix"/>
<feColorMatrix in="SourceAlpha" type="matrix" values="0 0 0 0 0 0 0 0 0 0 0 0 0 0 0 0 0 0 127 0" result="hardAlpha"/>
<feOffset dy="4"/>
<feGaussianBlur stdDeviation="12.5"/>
<feComposite in2="hardAlpha" operator="out"/>
<feColorMatrix type="matrix" values="0 0 0 0 0 0 0 0 0 0 0 0 0 0 0 0 0 0 0.45 0"/>
<feBlend mode="normal" in2="BackgroundImageFix" result="effect1_dropShadow_20_71"/>
<feBlend mode="normal" in="SourceGraphic" in2="effect1_dropShadow_20_71" result="shape"/>
</filter>
<filter id="filter16_d_20_71" x="552.911" y="557" width="113.884" height="19" filterUnits="userSpaceOnUse" color-interpolation-filters="sRGB">
<feFlood flood-opacity="0" result="BackgroundImageFix"/>
<feColorMatrix in="SourceAlpha" type="matrix" values="0 0 0 0 0 0 0 0 0 0 0 0 0 0 0 0 0 0 127 0" result="hardAlpha"/>
<feOffset dy="4"/>
<feGaussianBlur stdDeviation="2"/>
<feComposite in2="hardAlpha" operator="out"/>
<feColorMatrix type="matrix" values="0 0 0 0 0 0 0 0 0 0 0 0 0 0 0 0 0 0 0.25 0"/>
<feBlend mode="normal" in2="BackgroundImageFix" result="effect1_dropShadow_20_71"/>
<feBlend mode="normal" in="SourceGraphic" in2="effect1_dropShadow_20_71" result="shape"/>
</filter>
<filter id="filter17_d_20_71" x="545.784" y="679" width="131.192" height="20" filterUnits="userSpaceOnUse" color-interpolation-filters="sRGB">
<feFlood flood-opacity="0" result="BackgroundImageFix"/>
<feColorMatrix in="SourceAlpha" type="matrix" values="0 0 0 0 0 0 0 0 0 0 0 0 0 0 0 0 0 0 127 0" result="hardAlpha"/>
<feOffset dy="4"/>
<feGaussianBlur stdDeviation="2"/>
<feComposite in2="hardAlpha" operator="out"/>
<feColorMatrix type="matrix" values="0 0 0 0 0 0 0 0 0 0 0 0 0 0 0 0 0 0 0.25 0"/>
<feBlend mode="normal" in2="BackgroundImageFix" result="effect1_dropShadow_20_71"/>
<feBlend mode="normal" in="SourceGraphic" in2="effect1_dropShadow_20_71" result="shape"/>
</filter>
<linearGradient id="paint0_linear_20_71" x1="767.661" y1="0" x2="767.661" y2="748" gradientUnits="userSpaceOnUse">
<stop stop-color="#4FC5E5"/>
<stop offset="0.645" stop-color="#D2FFFB"/>
<stop offset="0.985" stop-color="#D2FFFB"/>
</linearGradient>
<linearGradient id="paint1_linear_20_71" x1="36.1432" y1="669" x2="36.1432" y2="790" gradientUnits="userSpaceOnUse">
<stop offset="0.25" stop-color="#8F9631"/>
<stop offset="1" stop-color="#2E3010"/>
</linearGradient>
<linearGradient id="paint2_linear_20_71" x1="44.2881" y1="714" x2="44.2881" y2="845" gradientUnits="userSpaceOnUse">
<stop offset="0.725" stop-color="#7E8C2A"/>
<stop offset="1" stop-color="#22260B" stop-opacity="0.81"/>
</linearGradient>
<linearGradient id="paint3_linear_20_71" x1="1468.64" y1="690" x2="1468.64" y2="792" gradientUnits="userSpaceOnUse">
<stop offset="0.25" stop-color="#8F9631"/>
<stop offset="1" stop-color="#2E3010"/>
</linearGradient>
<linearGradient id="paint4_linear_20_71" x1="1449.8" y1="743" x2="1449.8" y2="824" gradientUnits="userSpaceOnUse">
<stop offset="0.725" stop-color="#7E8C2A"/>
<stop offset="1" stop-color="#22260B" stop-opacity="0.81"/>
</linearGradient>
<linearGradient id="paint5_linear_20_71" x1="985.539" y1="753" x2="985.539" y2="781" gradientUnits="userSpaceOnUse">
<stop offset="0.295" stop-color="#9D1F13"/>
<stop offset="1" stop-color="#370B07" stop-opacity="0.71"/>
</linearGradient>
<linearGradient id="paint6_linear_20_71" x1="940.232" y1="712" x2="940.232" y2="736" gradientUnits="userSpaceOnUse">
<stop offset="0.65" stop-color="#A5A432"/>
<stop offset="1" stop-color="#547822"/>
</linearGradient>
<clipPath id="clip0_20_71">
<rect width="1461" height="1024" fill="white"/>
</clipPath>
</defs>
</svg>
